<?xml version="1.0" encoding="UTF-8"?>
<svg width="516px" height="483px" viewBox="0 0 516 483" version="1.1" xmlns="http://www.w3.org/2000/svg" xmlns:xlink="http://www.w3.org/1999/xlink">
    <title>user_x5F_close_x5F_information Copy</title>
    <g id="Mockups" stroke="none" stroke-width="1" fill="inherit" fill-rule="evenodd">
        <g id="user_x5F_close_x5F_information-Copy" fill="inherit" fill-rule="nonzero">
            <path d="M516,338.1 C515.96775,258.0347 451.032375,193.2 370.875,193.2 C370.471875,193.2 370.084875,193.2483 369.68175,193.2644 C380.679,174.2986 387,152.2899 387,128.8 C387,57.6702 329.24025,0 258,0 C186.75975,0 129,57.6702 129,128.8 C129,197.386 182.7285,253.2852 250.437375,257.2297 C243.681,267.2439 238.29525,278.2241 234.183375,289.8 L64.5,289.8 C0,289.8 0,354.2 0,354.2 L0,483 L516,483 L516,354.2 C516,354.2 516,341.4327 516,338.1 Z M481.863375,338.1 C481.71825,399.2639 432.133875,448.7714 370.875,448.9163 C309.583875,448.7714 259.9995,399.2639 259.854375,338.1 C259.9995,276.9039 309.583875,227.3964 370.875,227.2676 C432.133875,227.3964 481.71825,276.9039 481.863375,338.1 Z" id="Shape"></path>
            <path d="M354.75,418.6 L387,418.6 L387,322 L354.75,322 L354.75,418.6 Z M354.75,257.6 L354.75,289.8 L387,289.8 L387,257.6 L354.75,257.6 Z" id="Shape"></path>
        </g>
    </g>
</svg>