<?xml version="1.0" encoding="UTF-8"?>
<svg width="377px" height="464px" viewBox="0 0 377 464" version="1.1" xmlns="http://www.w3.org/2000/svg" xmlns:xlink="http://www.w3.org/1999/xlink">
    <title>User</title>
    <g id="Symbols" stroke="none" stroke-width="1" fill="none" fill-rule="evenodd">
        <g id="Path" fill="#C8C7C7">
            <path d="M364.331406,334.367868 C336.300266,297.731081 300.148969,278.782817 239.060533,272.696901 C228.034696,270.477457 219.72409,260.708073 219.72409,249.105466 C219.72409,240.609656 246.978537,215.176486 246.783832,214.988163 C274.914985,185.893869 289.996644,138.618433 289.996644,102.273175 C289.996644,45.8220508 244.563344,0 188.498936,0 C132.434528,0 86.9990997,45.8220508 86.9990997,102.273175 C86.9990997,138.816332 101.693477,186.374784 130.114027,215.470142 C130.114027,215.470142 157.27591,240.61072 157.27591,249.10653 C157.27591,261.387951 147.997099,271.628674 136.008376,273.084187 C76.1711596,279.368001 40.4092726,298.211996 12.6632744,334.368932 C4.6399378,344.808618 0.288333672,365.784812 0,377.002261 C0.09575657,379.901583 0,425.335284 0,425.335284 C0,446.697699 17.3042762,464 38.6675669,464 L338.330305,464 C359.692532,464 377,446.697699 377,425.335284 C377,425.335284 376.905307,379.901583 377,377.002261 C376.713794,365.783748 372.351551,344.80649 364.331406,334.367868 Z"></path>
        </g>
    </g>
</svg>