<?xml version="1.0" encoding="UTF-8"?>
<svg width="37px" height="23px" viewBox="0 0 37 23" version="1.1" xmlns="http://www.w3.org/2000/svg" xmlns:xlink="http://www.w3.org/1999/xlink">
    <title>cloud</title>
    <g id="Mockups" stroke="none" stroke-width="1" fill="none" fill-rule="evenodd">
        <g id="iPhone-SE-Copy" transform="translate(-32.000000, -33.000000)" fill="#FEFEFE" fill-rule="nonzero">
            <g id="Banner" transform="translate(18.000000, 21.000000)">
                <g id="Cloud" transform="translate(14.000000, 12.000000)">
                    <path d="M32.8879973,10.0314223 C35.3112182,11.0742201 37,13.4595169 37,16.2352941 C37,19.9637359 33.9326651,23 30.1489157,23 L6.85108433,23 C3.05934388,23 0,19.9713379 0,16.2352941 C0,13.4605891 1.69879163,11.069235 4.12741387,10.027376 L4.12741387,10.027376 C4.11659543,9.84314359 4.11111111,9.65749828 4.11111111,9.47058824 C4.11111111,4.24012658 8.40586084,0 13.7037037,0 C16.852742,0 19.6473762,1.49808545 21.3963304,3.81177289 C22.546117,3.11054301 23.9011189,2.70588235 25.3518519,2.70588235 C29.4753303,2.70588235 32.8254057,5.97509735 32.8879973,10.0314223 L32.8879973,10.0314223 L32.8879973,10.0314223 Z" id="cloud"></path>
                </g>
            </g>
        </g>
    </g>
</svg>