<?xml version="1.0" encoding="UTF-8"?>
<svg width="43px" height="39px" viewBox="0 0 43 39" version="1.1" xmlns="http://www.w3.org/2000/svg" xmlns:xlink="http://www.w3.org/1999/xlink">
    <title>Folder</title>
    <g id="Symbols" stroke="none" stroke-width="1" fill="none" fill-rule="evenodd">
        <g id="Yesterday" fill-rule="nonzero">
            <g id="Folder">
                <path d="M3.58333333,7 C1.60425833,7 0,8.6 0,10.5555556 L0,35.4444444 C0,37.4 1.60431208,39 3.58333333,39 L39.4166667,39 C41.3964583,39 43,37.4 43,35.4444444 L43,10.5555556 C43,8.6 41.3964583,7 39.4166667,7 L3.58333333,7 Z" id="Path" fill="#2980B9"></path>
                <path d="M5.54545455,0 C3.5873,0 2,1.6 2,3.55555556 L2,28.4444444 C2,30.4 3.5873,32 5.54545455,32 L25.0454545,32 L33.9090909,32 L37.4545455,32 C39.4134091,32 41,30.4 41,28.4444444 L41,12.4444444 L41,7.11111111 C41,5.15555556 39.4134091,3.55555556 37.4545455,3.55555556 L33.9090909,3.55555556 L25.0454545,3.55555556 L23.2727273,3.55555556 L17.9545455,0 L5.54545455,0 Z" id="Path" fill="#2980B9"></path>
                <path d="M41,23 L41,8.6 C41,6.62 39.4134091,5 37.4545455,5 L17.9545455,5 L9.09090909,5 L5.54545455,5 C3.5873,5 2,6.62 2,8.6 L2,23 L41,23 Z" id="Path" fill="#BDC3C7"></path>
                <path d="M3.58333333,7 C1.60425833,7 0,8.58823529 0,10.5294118 L0,21.1176471 L0,22.8823529 L0,33.4705882 C0,35.4117647 1.60431208,37 3.58333333,37 L39.4166667,37 C41.3964583,37 43,35.4117647 43,33.4705882 L43,22.8823529 L43,21.1176471 L43,10.5294118 C43,8.58823529 41.3964583,7 39.4166667,7 L3.58333333,7 Z" id="Path" fill="#3498DB"></path>
            </g>
        </g>
    </g>
</svg>